<svg xmlns="http://www.w3.org/2000/svg" width="23" height="24" viewBox="0 0 23 24">
  <metadata><?xpacket begin="﻿" id="W5M0MpCehiHzreSzNTczkc9d"?>
<x:xmpmeta xmlns:x="adobe:ns:meta/" x:xmptk="Adobe XMP Core 5.6-c142 79.160924, 2017/07/13-01:06:39        ">
   <rdf:RDF xmlns:rdf="http://www.w3.org/1999/02/22-rdf-syntax-ns#">
      <rdf:Description rdf:about=""/>
   </rdf:RDF>
</x:xmpmeta>
                                                                                                    
                                                                                                    
                                                                                                    
                                                                                                    
                                                                                                    
                                                                                                    
                                                                                                    
                                                                                                    
                                                                                                    
                                                                                                    
                                                                                                    
                                                                                                    
                                                                                                    
                                                                                                    
                                                                                                    
                                                                                                    
                                                                                                    
                                                                                                    
                                                                                                    
                                                                                                    
                           
<?xpacket end="w"?></metadata>
<defs>
    <style>
      .cls-1 {
        fill: #ffa200;
        fill-rule: evenodd;
      }
    </style>
  </defs>
  <path id="building-19" class="cls-1" d="M803,1373H780v-16h6v-8h11v12h6v12Zm-12-5h-3v4h3v-4Zm4,0h-3v4h3v-4Zm6,0h-2v4h2v-4Zm-17,0h-2v4h2v-4Zm11-5h-2v2h2v-2Zm-5,0h-2v2h2v-2Zm11,0h-2v2h2v-2Zm-17,0h-2v2h2v-2Zm11-4h-2v2h2v-2Zm-5,0h-2v2h2v-2Zm-6,0h-2v2h2v-2Zm11-4h-2v2h2v-2Zm-5,0h-2v2h2v-2Zm5-4h-2v2h2v-2Zm-5,0h-2v2h2v-2Z" transform="translate(-780 -1349)"/>
</svg>
